<svg width="253" height="254" viewBox="0 0 253 254" version="1.1" xmlns="http://www.w3.org/2000/svg" xmlns:xlink="http://www.w3.org/1999/xlink" xmlns:figma="http://www.figma.com/figma/ns"><title>Group</title><desc>Created using Figma</desc><g id="Canvas" transform="translate(759 -607)" figma:type="canvas"><g id="Group" style="mix-blend-mode:normal;" figma:type="frame"><g id="Group" style="mix-blend-mode:normal;" figma:type="frame"><g id="Star" style="mix-blend-mode:normal;" figma:type="vector"><use xlink:href="#path0_fill" transform="translate(-758.603 719.944)" fill="#86A12D" style="mix-blend-mode:normal;"/></g><g id="NO COFFEE" style="mix-blend-mode:normal;" figma:type="vector"><use xlink:href="#path1_fill" transform="translate(-742.044 766.26)" fill="#F2F2F2" style="mix-blend-mode:normal;"/><use xlink:href="#path2_fill" transform="translate(-742.044 766.26)" fill="#F2F2F2" style="mix-blend-mode:normal;"/><use xlink:href="#path3_fill" transform="translate(-742.044 766.26)" fill="#F2F2F2" style="mix-blend-mode:normal;"/><use xlink:href="#path4_fill" transform="translate(-742.044 766.26)" fill="#F2F2F2" style="mix-blend-mode:normal;"/><use xlink:href="#path5_fill" transform="translate(-742.044 766.26)" fill="#F2F2F2" style="mix-blend-mode:normal;"/><use xlink:href="#path6_fill" transform="translate(-742.044 766.26)" fill="#F2F2F2" style="mix-blend-mode:normal;"/><use xlink:href="#path7_fill" transform="translate(-742.044 766.26)" fill="#F2F2F2" style="mix-blend-mode:normal;"/><use xlink:href="#path8_fill" transform="translate(-742.044 766.26)" fill="#F2F2F2" style="mix-blend-mode:normal;"/></g></g><g id="Group" style="mix-blend-mode:normal;" figma:type="frame"><g id="Star" style="mix-blend-mode:normal;" figma:type="vector"><use xlink:href="#path0_fill" transform="translate(-694.838 607.5)" fill="#313B11" style="mix-blend-mode:normal;"/></g><g id="NO HALIBUT" style="mix-blend-mode:normal;" figma:type="vector"><use xlink:href="#path9_fill" transform="translate(-683.029 653.76)" fill="#F2F2F2" style="mix-blend-mode:normal;"/><use xlink:href="#path10_fill" transform="translate(-683.029 653.76)" fill="#F2F2F2" style="mix-blend-mode:normal;"/><use xlink:href="#path11_fill" transform="translate(-683.029 653.76)" fill="#F2F2F2" style="mix-blend-mode:normal;"/><use xlink:href="#path12_fill" transform="translate(-683.029 653.76)" fill="#F2F2F2" style="mix-blend-mode:normal;"/><use xlink:href="#path13_fill" transform="translate(-683.029 653.76)" fill="#F2F2F2" style="mix-blend-mode:normal;"/><use xlink:href="#path14_fill" transform="translate(-683.029 653.76)" fill="#F2F2F2" style="mix-blend-mode:normal;"/><use xlink:href="#path15_fill" transform="translate(-683.029 653.76)" fill="#F2F2F2" style="mix-blend-mode:normal;"/><use xlink:href="#path16_fill" transform="translate(-683.029 653.76)" fill="#F2F2F2" style="mix-blend-mode:normal;"/><use xlink:href="#path17_fill" transform="translate(-683.029 653.76)" fill="#F2F2F2" style="mix-blend-mode:normal;"/></g></g><g id="Group" style="mix-blend-mode:normal;" figma:type="frame"><g id="Star" style="mix-blend-mode:normal;" figma:type="vector"><use xlink:href="#path0_fill" transform="translate(-627.885 718.667)" fill="#667B22" style="mix-blend-mode:normal;"/></g><g id="NO PEANUT BUTTER" style="mix-blend-mode:normal;" figma:type="vector"><use xlink:href="#path18_fill" transform="translate(-613.631 750.36)" fill="#F2F2F2" style="mix-blend-mode:normal;"/><use xlink:href="#path19_fill" transform="translate(-613.631 750.36)" fill="#F2F2F2" style="mix-blend-mode:normal;"/><use xlink:href="#path20_fill" transform="translate(-613.631 750.36)" fill="#F2F2F2" style="mix-blend-mode:normal;"/><use xlink:href="#path21_fill" transform="translate(-613.631 750.36)" fill="#F2F2F2" style="mix-blend-mode:normal;"/><use xlink:href="#path22_fill" transform="translate(-613.631 750.36)" fill="#F2F2F2" style="mix-blend-mode:normal;"/><use xlink:href="#path23_fill" transform="translate(-613.631 750.36)" fill="#F2F2F2" style="mix-blend-mode:normal;"/><use xlink:href="#path24_fill" transform="translate(-613.631 750.36)" fill="#F2F2F2" style="mix-blend-mode:normal;"/><use xlink:href="#path25_fill" transform="translate(-613.631 750.36)" fill="#F2F2F2" style="mix-blend-mode:normal;"/><use xlink:href="#path26_fill" transform="translate(-613.631 750.36)" fill="#F2F2F2" style="mix-blend-mode:normal;"/><use xlink:href="#path27_fill" transform="translate(-613.631 750.36)" fill="#F2F2F2" style="mix-blend-mode:normal;"/><use xlink:href="#path28_fill" transform="translate(-613.631 750.36)" fill="#F2F2F2" style="mix-blend-mode:normal;"/><use xlink:href="#path29_fill" transform="translate(-613.631 750.36)" fill="#F2F2F2" style="mix-blend-mode:normal;"/><use xlink:href="#path30_fill" transform="translate(-613.631 750.36)" fill="#F2F2F2" style="mix-blend-mode:normal;"/><use xlink:href="#path31_fill" transform="translate(-613.631 750.36)" fill="#F2F2F2" style="mix-blend-mode:normal;"/></g></g></g></g><defs><path id="path0_fill" d="M 60.744 0L 0 35.1389L 0 105.417L 60.744 140.556L 121.488 105.417L 121.488 35.1389L 60.744 0Z"/><path id="path1_fill" d="M 42.6127 16.8L 42.3727 17.04L 40.2127 17.04L 39.7327 16.8L 31.5727 4.32L 31.3327 4.32L 31.3327 16.8L 31.0927 17.04L 29.1727 17.04L 28.9327 16.8L 28.9327 0.48L 29.1727 0.240002L 31.3327 0.240002L 31.8127 0.48L 39.9727 12.96L 40.2127 12.96L 40.2127 0.48L 40.4527 0.240002L 42.3727 0.240002L 42.6127 0.48L 42.6127 16.8Z"/><path id="path2_fill" d="M 47.6159 14.904C 46.2079 13.304 45.5039 11.216 45.5039 8.64C 45.5039 6.064 46.2079 3.984 47.6159 2.4C 49.0239 0.800002 50.9599 0 53.4239 0C 55.8879 0 57.8239 0.800002 59.2319 2.4C 60.6399 3.984 61.3439 6.064 61.3439 8.64C 61.3439 11.216 60.6399 13.304 59.2319 14.904C 57.8239 16.488 55.8879 17.28 53.4239 17.28C 50.9599 17.28 49.0239 16.488 47.6159 14.904ZM 49.3439 3.936C 48.3839 5.104 47.9039 6.672 47.9039 8.64C 47.9039 10.608 48.3839 12.184 49.3439 13.368C 50.3039 14.536 51.6639 15.12 53.4239 15.12C 55.1839 15.12 56.5439 14.536 57.5039 13.368C 58.4639 12.184 58.9439 10.608 58.9439 8.64C 58.9439 6.672 58.4639 5.104 57.5039 3.936C 56.5439 2.752 55.1839 2.16 53.4239 2.16C 51.6639 2.16 50.3039 2.752 49.3439 3.936Z"/><path id="path3_fill" d="M 7.92 46.08C 5.456 46.08 3.52 45.288 2.112 43.704C 0.704 42.104 0 40.016 0 37.44C 0 34.864 0.704 32.784 2.112 31.2C 3.52 29.6 5.456 28.8 7.92 28.8C 9.776 28.8 11.296 29.272 12.48 30.216C 13.664 31.144 14.384 32.352 14.64 33.84L 14.4 34.08L 12.48 34.08L 12.24 33.84C 11.984 32.96 11.488 32.264 10.752 31.752C 10.016 31.224 9.072 30.96 7.92 30.96C 6.16 30.96 4.8 31.552 3.84 32.736C 2.88 33.904 2.4 35.472 2.4 37.44C 2.4 39.408 2.88 40.984 3.84 42.168C 4.8 43.336 6.16 43.92 7.92 43.92C 10.208 43.92 11.648 42.88 12.24 40.8L 12.48 40.56L 14.4 40.56L 14.64 40.8C 14.384 42.336 13.68 43.6 12.528 44.592C 11.392 45.584 9.856 46.08 7.92 46.08Z"/><path id="path4_fill" d="M 18.6823 43.704C 17.2743 42.104 16.5703 40.016 16.5703 37.44C 16.5703 34.864 17.2743 32.784 18.6823 31.2C 20.0903 29.6 22.0263 28.8 24.4903 28.8C 26.9543 28.8 28.8903 29.6 30.2983 31.2C 31.7063 32.784 32.4103 34.864 32.4103 37.44C 32.4103 40.016 31.7063 42.104 30.2983 43.704C 28.8903 45.288 26.9543 46.08 24.4903 46.08C 22.0263 46.08 20.0903 45.288 18.6823 43.704ZM 20.4103 32.736C 19.4503 33.904 18.9703 35.472 18.9703 37.44C 18.9703 39.408 19.4503 40.984 20.4103 42.168C 21.3703 43.336 22.7303 43.92 24.4903 43.92C 26.2503 43.92 27.6103 43.336 28.5703 42.168C 29.5303 40.984 30.0103 39.408 30.0103 37.44C 30.0103 35.472 29.5303 33.904 28.5703 32.736C 27.6103 31.552 26.2503 30.96 24.4903 30.96C 22.7303 30.96 21.3703 31.552 20.4103 32.736Z"/><path id="path5_fill" d="M 46.0959 30.96L 45.8559 31.2L 37.9359 31.2L 37.6959 31.44L 37.6959 36.24L 37.9359 36.48L 45.3759 36.48L 45.6159 36.72L 45.6159 38.4L 45.3759 38.64L 37.9359 38.64L 37.6959 38.88L 37.6959 45.6L 37.4559 45.84L 35.5359 45.84L 35.2959 45.6L 35.2959 29.28L 35.5359 29.04L 45.8559 29.04L 46.0959 29.28L 46.0959 30.96Z"/><path id="path6_fill" d="M 59.7834 30.96L 59.5434 31.2L 51.6234 31.2L 51.3834 31.44L 51.3834 36.24L 51.6234 36.48L 59.0634 36.48L 59.3034 36.72L 59.3034 38.4L 59.0634 38.64L 51.6234 38.64L 51.3834 38.88L 51.3834 45.6L 51.1434 45.84L 49.2234 45.84L 48.9834 45.6L 48.9834 29.28L 49.2234 29.04L 59.5434 29.04L 59.7834 29.28L 59.7834 30.96Z"/><path id="path7_fill" d="M 73.9509 45.6L 73.7109 45.84L 62.9109 45.84L 62.6709 45.6L 62.6709 29.28L 62.9109 29.04L 73.7109 29.04L 73.9509 29.28L 73.9509 30.96L 73.7109 31.2L 65.3109 31.2L 65.0709 31.44L 65.0709 36L 65.3109 36.24L 73.2309 36.24L 73.4709 36.48L 73.4709 38.16L 73.2309 38.4L 65.3109 38.4L 65.0709 38.64L 65.0709 43.44L 65.3109 43.68L 73.7109 43.68L 73.9509 43.92L 73.9509 45.6Z"/><path id="path8_fill" d="M 88.5994 45.6L 88.3594 45.84L 77.5594 45.84L 77.3194 45.6L 77.3194 29.28L 77.5594 29.04L 88.3594 29.04L 88.5994 29.28L 88.5994 30.96L 88.3594 31.2L 79.9594 31.2L 79.7194 31.44L 79.7194 36L 79.9594 36.24L 87.8794 36.24L 88.1194 36.48L 88.1194 38.16L 87.8794 38.4L 79.9594 38.4L 79.7194 38.64L 79.7194 43.44L 79.9594 43.68L 88.3594 43.68L 88.5994 43.92L 88.5994 45.6Z"/><path id="path9_fill" d="M 44.9808 16.8L 44.7408 17.04L 42.5808 17.04L 42.1008 16.8L 33.9408 4.32L 33.7008 4.32L 33.7008 16.8L 33.4608 17.04L 31.5408 17.04L 31.3008 16.8L 31.3008 0.48L 31.5408 0.240002L 33.7008 0.240002L 34.1808 0.48L 42.3408 12.96L 42.5808 12.96L 42.5808 0.48L 42.8208 0.240002L 44.7408 0.240002L 44.9808 0.48L 44.9808 16.8Z"/><path id="path10_fill" d="M 49.984 14.904C 48.576 13.304 47.872 11.216 47.872 8.64C 47.872 6.064 48.576 3.984 49.984 2.4C 51.392 0.800002 53.328 0 55.792 0C 58.256 0 60.192 0.800002 61.6 2.4C 63.008 3.984 63.712 6.064 63.712 8.64C 63.712 11.216 63.008 13.304 61.6 14.904C 60.192 16.488 58.256 17.28 55.792 17.28C 53.328 17.28 51.392 16.488 49.984 14.904ZM 51.712 3.936C 50.752 5.104 50.272 6.672 50.272 8.64C 50.272 10.608 50.752 12.184 51.712 13.368C 52.672 14.536 54.032 15.12 55.792 15.12C 57.552 15.12 58.912 14.536 59.872 13.368C 60.832 12.184 61.312 10.608 61.312 8.64C 61.312 6.672 60.832 5.104 59.872 3.936C 58.912 2.752 57.552 2.16 55.792 2.16C 54.032 2.16 52.672 2.752 51.712 3.936Z"/><path id="path11_fill" d="M 13.2 45.6L 12.96 45.84L 11.04 45.84L 10.8 45.6L 10.8 38.64L 10.56 38.4L 2.64 38.4L 2.4 38.64L 2.4 45.6L 2.16 45.84L 0.24 45.84L 0 45.6L 0 29.28L 0.24 29.04L 2.16 29.04L 2.4 29.28L 2.4 36L 2.64 36.24L 10.56 36.24L 10.8 36L 10.8 29.28L 11.04 29.04L 12.96 29.04L 13.2 29.28L 13.2 45.6Z"/><path id="path12_fill" d="M 29.7591 45.6L 29.5191 45.84L 28.0791 45.84L 27.8391 45.6L 26.3991 42L 25.9191 41.76L 19.4391 41.76L 18.9591 42L 17.5191 45.6L 17.2791 45.84L 15.8391 45.84L 15.5991 45.6L 15.5991 43.92L 21.3591 29.28L 21.5991 29.04L 23.7591 29.04L 23.9991 29.28L 29.7591 43.92L 29.7591 45.6ZM 25.4391 39.36L 22.7991 32.64L 22.5591 32.64L 19.9191 39.36L 20.1591 39.6L 25.1991 39.6L 25.4391 39.36Z"/><path id="path13_fill" d="M 42.9563 45.6L 42.7162 45.84L 32.3962 45.84L 32.1562 45.6L 32.1562 29.28L 32.3962 29.04L 34.3163 29.04L 34.5563 29.28L 34.5563 43.44L 34.7962 43.68L 42.7162 43.68L 42.9563 43.92L 42.9563 45.6Z"/><path id="path14_fill" d="M 47.5172 45.6L 47.2772 45.84L 45.3572 45.84L 45.1172 45.6L 45.1172 29.28L 45.3572 29.04L 47.2772 29.04L 47.5172 29.28L 47.5172 45.6Z"/><path id="path15_fill" d="M 63.8316 41.04C 63.8316 42.72 63.3596 43.944 62.4156 44.712C 61.4716 45.464 60.2636 45.84 58.7916 45.84L 51.5916 45.84L 51.3516 45.6L 51.3516 29.28L 51.5916 29.04L 58.3116 29.04C 59.7676 29.04 60.9676 29.408 61.9116 30.144C 62.8716 30.88 63.3516 32.032 63.3516 33.6C 63.3516 34.4 63.1436 35.096 62.7276 35.688C 62.3276 36.28 61.8156 36.704 61.1916 36.96L 61.1916 37.2C 61.9756 37.456 62.6076 37.904 63.0876 38.544C 63.5836 39.184 63.8316 40.016 63.8316 41.04ZM 60.9516 33.6C 60.9516 32.672 60.7116 32.04 60.2316 31.704C 59.7516 31.368 58.9516 31.2 57.8316 31.2L 53.9916 31.2L 53.7516 31.44L 53.7516 35.76L 53.9916 36L 58.0716 36C 59.0796 36 59.8076 35.832 60.2556 35.496C 60.7196 35.144 60.9516 34.512 60.9516 33.6ZM 61.4316 41.04C 61.4316 39.968 61.1756 39.224 60.6636 38.808C 60.1516 38.376 59.2876 38.16 58.0716 38.16L 53.9916 38.16L 53.7516 38.4L 53.7516 43.44L 53.9916 43.68L 58.5516 43.68C 59.5276 43.68 60.2476 43.48 60.7116 43.08C 61.1916 42.664 61.4316 41.984 61.4316 41.04Z"/><path id="path16_fill" d="M 79.6631 29.28L 79.6631 39.84C 79.6631 41.776 79.0871 43.304 77.9351 44.424C 76.7991 45.528 75.2151 46.08 73.1831 46.08C 71.1511 46.08 69.5591 45.528 68.4071 44.424C 67.2711 43.304 66.7031 41.776 66.7031 39.84L 66.7031 29.28L 66.9431 29.04L 68.8631 29.04L 69.1031 29.28L 69.1031 39.84C 69.1031 41.104 69.4391 42.104 70.1111 42.84C 70.7831 43.56 71.8071 43.92 73.1831 43.92C 74.5591 43.92 75.5831 43.56 76.2551 42.84C 76.9271 42.104 77.2631 41.104 77.2631 39.84L 77.2631 29.28L 77.5031 29.04L 79.4231 29.04L 79.6631 29.28Z"/><path id="path17_fill" d="M 95.5078 30.96L 95.2678 31.2L 90.2278 31.2L 89.9878 31.44L 89.9878 45.6L 89.7478 45.84L 87.8278 45.84L 87.5878 45.6L 87.5878 31.44L 87.3478 31.2L 82.3078 31.2L 82.0678 30.96L 82.0678 29.28L 82.3078 29.04L 95.2678 29.04L 95.5078 29.28L 95.5078 30.96Z"/><path id="path18_fill" d="M 43.0823 16.8L 42.8423 17.04L 40.6823 17.04L 40.2023 16.8L 32.0423 4.32L 31.8023 4.32L 31.8023 16.8L 31.5623 17.04L 29.6423 17.04L 29.4023 16.8L 29.4023 0.48L 29.6423 0.24L 31.8023 0.24L 32.2823 0.48L 40.4423 12.96L 40.6823 12.96L 40.6823 0.48L 40.9223 0.24L 42.8423 0.24L 43.0823 0.48L 43.0823 16.8Z"/><path id="path19_fill" d="M 48.0856 14.904C 46.6776 13.304 45.9736 11.216 45.9736 8.64C 45.9736 6.064 46.6776 3.984 48.0856 2.4C 49.4936 0.8 51.4296 0 53.8936 0C 56.3576 0 58.2936 0.8 59.7016 2.4C 61.1096 3.984 61.8136 6.064 61.8136 8.64C 61.8136 11.216 61.1096 13.304 59.7016 14.904C 58.2936 16.488 56.3576 17.28 53.8936 17.28C 51.4296 17.28 49.4936 16.488 48.0856 14.904ZM 49.8136 3.936C 48.8536 5.104 48.3736 6.672 48.3736 8.64C 48.3736 10.608 48.8536 12.184 49.8136 13.368C 50.7736 14.536 52.1336 15.12 53.8936 15.12C 55.6536 15.12 57.0136 14.536 57.9736 13.368C 58.9336 12.184 59.4136 10.608 59.4136 8.64C 59.4136 6.672 58.9336 5.104 57.9736 3.936C 57.0136 2.752 55.6536 2.16 53.8936 2.16C 52.1336 2.16 50.7736 2.752 49.8136 3.936Z"/><path id="path20_fill" d="M 13.2 33.84C 13.2 35.44 12.688 36.64 11.664 37.44C 10.656 38.24 9.328 38.64 7.68 38.64L 2.64 38.64L 2.4 38.88L 2.4 45.6L 2.16 45.84L 0.24 45.84L 0 45.6L 0 29.28L 0.24 29.04L 7.68 29.04C 9.424 29.04 10.776 29.432 11.736 30.216C 12.712 31 13.2 32.208 13.2 33.84ZM 10.056 35.88C 10.552 35.464 10.8 34.784 10.8 33.84C 10.8 32.896 10.552 32.224 10.056 31.824C 9.56 31.408 8.768 31.2 7.68 31.2L 2.64 31.2L 2.4 31.44L 2.4 36.24L 2.64 36.48L 7.68 36.48C 8.768 36.48 9.56 36.28 10.056 35.88Z"/><path id="path21_fill" d="M 26.8894 45.6L 26.6494 45.84L 15.8494 45.84L 15.6094 45.6L 15.6094 29.28L 15.8494 29.04L 26.6494 29.04L 26.8894 29.28L 26.8894 30.96L 26.6494 31.2L 18.2494 31.2L 18.0094 31.44L 18.0094 36L 18.2494 36.24L 26.1694 36.24L 26.4094 36.48L 26.4094 38.16L 26.1694 38.4L 18.2494 38.4L 18.0094 38.64L 18.0094 43.44L 18.2494 43.68L 26.6494 43.68L 26.8894 43.92L 26.8894 45.6Z"/><path id="path22_fill" d="M 42.9778 45.6L 42.7378 45.84L 41.2978 45.84L 41.0578 45.6L 39.6178 42L 39.1378 41.76L 32.6578 41.76L 32.1778 42L 30.7378 45.6L 30.4978 45.84L 29.0578 45.84L 28.8178 45.6L 28.8178 43.92L 34.5778 29.28L 34.8178 29.04L 36.9778 29.04L 37.2178 29.28L 42.9778 43.92L 42.9778 45.6ZM 38.6578 39.36L 36.0178 32.64L 35.7778 32.64L 33.1378 39.36L 33.3778 39.6L 38.4178 39.6L 38.6578 39.36Z"/><path id="path23_fill" d="M 59.055 45.6L 58.815 45.84L 56.655 45.84L 56.175 45.6L 48.015 33.12L 47.775 33.12L 47.775 45.6L 47.535 45.84L 45.615 45.84L 45.375 45.6L 45.375 29.28L 45.615 29.04L 47.775 29.04L 48.255 29.28L 56.415 41.76L 56.655 41.76L 56.655 29.28L 56.895 29.04L 58.815 29.04L 59.055 29.28L 59.055 45.6Z"/><path id="path24_fill" d="M 75.8662 29.28L 75.8662 39.84C 75.8662 41.776 75.2903 43.304 74.1383 44.424C 73.0023 45.528 71.4183 46.08 69.3863 46.08C 67.3543 46.08 65.7623 45.528 64.6103 44.424C 63.4743 43.304 62.9062 41.776 62.9062 39.84L 62.9062 29.28L 63.1463 29.04L 65.0663 29.04L 65.3063 29.28L 65.3063 39.84C 65.3063 41.104 65.6423 42.104 66.3143 42.84C 66.9863 43.56 68.0103 43.92 69.3863 43.92C 70.7623 43.92 71.7863 43.56 72.4583 42.84C 73.1302 42.104 73.4662 41.104 73.4662 39.84L 73.4662 29.28L 73.7063 29.04L 75.6263 29.04L 75.8662 29.28Z"/><path id="path25_fill" d="M 91.7109 30.96L 91.4709 31.2L 86.4309 31.2L 86.1909 31.44L 86.1909 45.6L 85.9509 45.84L 84.0309 45.84L 83.7909 45.6L 83.7909 31.44L 83.5509 31.2L 78.5109 31.2L 78.2709 30.96L 78.2709 29.28L 78.5109 29.04L 91.4709 29.04L 91.7109 29.28L 91.7109 30.96Z"/><path id="path26_fill" d="M 13.4644 69.84C 13.4644 71.52 12.9924 72.744 12.0484 73.512C 11.1044 74.264 9.89638 74.64 8.42438 74.64L 1.22437 74.64L 0.984375 74.4L 0.984375 58.08L 1.22437 57.84L 7.94438 57.84C 9.40038 57.84 10.6004 58.208 11.5444 58.944C 12.5044 59.68 12.9844 60.832 12.9844 62.4C 12.9844 63.2 12.7764 63.896 12.3604 64.488C 11.9604 65.08 11.4484 65.504 10.8244 65.76L 10.8244 66C 11.6084 66.256 12.2404 66.704 12.7204 67.344C 13.2164 67.984 13.4644 68.816 13.4644 69.84ZM 10.5844 62.4C 10.5844 61.472 10.3444 60.84 9.86437 60.504C 9.38437 60.168 8.58438 60 7.46437 60L 3.62437 60L 3.38437 60.24L 3.38437 64.56L 3.62437 64.8L 7.70437 64.8C 8.71237 64.8 9.44037 64.632 9.88837 64.296C 10.3524 63.944 10.5844 63.312 10.5844 62.4ZM 11.0644 69.84C 11.0644 68.768 10.8084 68.024 10.2964 67.608C 9.78438 67.176 8.92037 66.96 7.70437 66.96L 3.62437 66.96L 3.38437 67.2L 3.38437 72.24L 3.62437 72.48L 8.18437 72.48C 9.16037 72.48 9.88038 72.28 10.3444 71.88C 10.8244 71.464 11.0644 70.784 11.0644 69.84Z"/><path id="path27_fill" d="M 29.2959 58.08L 29.2959 68.64C 29.2959 70.576 28.7199 72.104 27.5679 73.224C 26.4319 74.328 24.8479 74.88 22.8159 74.88C 20.7839 74.88 19.1919 74.328 18.0399 73.224C 16.9039 72.104 16.3359 70.576 16.3359 68.64L 16.3359 58.08L 16.5759 57.84L 18.4959 57.84L 18.7359 58.08L 18.7359 68.64C 18.7359 69.904 19.0719 70.904 19.7439 71.64C 20.4159 72.36 21.4399 72.72 22.8159 72.72C 24.1919 72.72 25.2159 72.36 25.8879 71.64C 26.5599 70.904 26.8959 69.904 26.8959 68.64L 26.8959 58.08L 27.1359 57.84L 29.0559 57.84L 29.2959 58.08Z"/><path id="path28_fill" d="M 45.1406 59.76L 44.9006 60L 39.8606 60L 39.6206 60.24L 39.6206 74.4L 39.3806 74.64L 37.4606 74.64L 37.2206 74.4L 37.2206 60.24L 36.9806 60L 31.9406 60L 31.7006 59.76L 31.7006 58.08L 31.9406 57.84L 44.9006 57.84L 45.1406 58.08L 45.1406 59.76Z"/><path id="path29_fill" d="M 60 59.76L 59.76 60L 54.72 60L 54.48 60.24L 54.48 74.4L 54.24 74.64L 52.32 74.64L 52.08 74.4L 52.08 60.24L 51.84 60L 46.8 60L 46.56 59.76L 46.56 58.08L 46.8 57.84L 59.76 57.84L 60 58.08L 60 59.76Z"/><path id="path30_fill" d="M 73.6706 74.4L 73.4306 74.64L 62.6306 74.64L 62.3906 74.4L 62.3906 58.08L 62.6306 57.84L 73.4306 57.84L 73.6706 58.08L 73.6706 59.76L 73.4306 60L 65.0306 60L 64.7906 60.24L 64.7906 64.8L 65.0306 65.04L 72.9506 65.04L 73.1906 65.28L 73.1906 66.96L 72.9506 67.2L 65.0306 67.2L 64.7906 67.44L 64.7906 72.24L 65.0306 72.48L 73.4306 72.48L 73.6706 72.72L 73.6706 74.4Z"/><path id="path31_fill" d="M 87.0951 64.68C 87.5911 64.264 87.8391 63.584 87.8391 62.64C 87.8391 61.696 87.5911 61.024 87.0951 60.624C 86.5991 60.208 85.8071 60 84.7191 60L 79.6791 60L 79.4391 60.24L 79.4391 65.04L 79.6791 65.28L 84.7191 65.28C 85.8071 65.28 86.5991 65.08 87.0951 64.68ZM 90.2391 62.64C 90.2391 63.92 89.9191 64.936 89.2791 65.688C 88.6391 66.44 87.7591 66.944 86.6391 67.2L 86.6391 67.44L 89.9991 72.72L 89.9991 74.4L 89.7591 74.64L 88.7991 74.64L 88.3191 74.4L 83.9991 67.68L 83.5191 67.44L 79.6791 67.44L 79.4391 67.68L 79.4391 74.4L 79.1991 74.64L 77.2791 74.64L 77.0391 74.4L 77.0391 58.08L 77.2791 57.84L 84.7191 57.84C 86.4631 57.84 87.8151 58.232 88.7751 59.016C 89.7511 59.8 90.2391 61.008 90.2391 62.64Z"/></defs></svg>