<svg width="261" height="61" viewBox="0 0 261 61" xmlns="http://www.w3.org/2000/svg"><g fill="#FFF"><path d="M20.88 7.92c0 1.9-.52 3.48-1.55 4.75-1.03 1.25-2.3 2.07-3.85 2.45v.36l4.68 6.12v3.6l-.36.36h-2.16l-.72-.36-7.2-9.36-.72-.36H5.4l-.36.36v9.36l-.36.36H.36L0 25.2V.72L.36.36h11.88c2.62 0 4.7.65 6.26 1.94 1.6 1.3 2.38 3.17 2.38 5.62zm-5.98 2.52c.63-.48.94-1.32.94-2.52s-.3-2.04-.94-2.52c-.6-.48-1.48-.72-2.66-.72H5.4l-.36.36v5.76l.36.36h6.84c1.18 0 2.06-.24 2.66-.72zM45 25.2l-.35.36H41.4l-.35-.36-1.8-4.68-.72-.36h-9l-.72.36L27 25.2l-.35.36H23.4l-.35-.36v-3.6L31.33.72l.36-.36h4.6l.35.36L45 21.6v3.6zm-7.55-9.72L34.2 6.84h-.35l-3.24 8.64.4.36h6.1l.4-.36zM48.62.72l.36-.36h5.04l.72.36 9.72 16.56h.36V.72l.36-.36h4.32l.36.36V25.2l-.36.36h-5.04l-.72-.36-9.72-16.56h-.36V25.2l-.36.36h-4.32l-.36-.36V.72zm44.64 2.84c1.92 2.14 2.88 5.27 2.88 9.4 0 4.13-.96 7.26-2.88 9.4-1.9 2.13-5 3.2-9.36 3.2h-7.92l-.36-.36V.72l.36-.36h7.92c4.35 0 7.47 1.07 9.36 3.2zm-3.7 15.74c1.03-1.3 1.54-3.4 1.54-6.34 0-2.93-.5-5.04-1.55-6.34-1.03-1.3-2.8-1.94-5.3-1.94h-3.23l-.36.36v15.84l.36.36h3.24c2.5 0 4.26-.65 5.3-1.94zm27-.08c1.28-1.58 1.9-3.67 1.9-6.26 0-2.6-.62-4.68-1.9-6.26-1.24-1.6-3-2.38-5.3-2.38-2.26 0-4.04.8-5.3 2.38-1.26 1.58-1.88 3.67-1.88 6.26 0 2.6.62 4.68 1.87 6.26 1.27 1.6 3.05 2.38 5.33 2.38 2.28 0 4.04-.8 5.3-2.38zm3.6-15.62c2.24 2.4 3.36 5.52 3.36 9.36s-1.12 6.96-3.35 9.36c-2.2 2.4-5.17 3.6-8.9 3.6-3.7 0-6.7-1.2-8.92-3.6-2.2-2.4-3.3-5.52-3.3-9.36s1.1-6.96 3.3-9.36c2.23-2.4 5.2-3.6 8.93-3.6 3.72 0 6.68 1.2 8.9 3.6zm34.67 21.6l-.36.36h-4.32l-.36-.36V11.16h-.4l-5.8 14.04-.38.36h-3.96l-.35-.36-5.77-14.04h-.36V25.2l-.35.36h-4.3l-.37-.36V.72l.35-.36h5.4l.35.36 7.2 17.64h.36L148.7.72l.37-.36h5.4l.36.36V25.2zM17.63 38.12c1.93 2.14 2.9 5.27 2.9 9.4 0 4.13-.97 7.26-2.9 9.4-1.9 2.13-5 3.2-9.35 3.2H.36L0 59.76V35.28l.36-.36h7.92c4.34 0 7.46 1.07 9.36 3.2zm-3.7 15.74c1.03-1.3 1.55-3.4 1.55-6.34 0-2.93-.52-5.04-1.55-6.34-1.03-1.3-2.8-1.94-5.3-1.94H5.4l-.36.36v15.84l.36.36h3.24c2.5 0 4.26-.65 5.3-1.94zm15.97 5.9l-.36.36h-4.32l-.36-.36V35.28l.36-.36h4.32l.36.36v24.48zm23.4 0l-.37.36H36l-.35-.36V35.28l.36-.36h17l.38.36v3.6l-.36.36H41.1l-.35.36v5.04l.34.36h11.1l.35.36v3.6l-.36.36H41.1l-.36.36v5.76l.36.36h11.88l.36.36v3.6zm23.74-20.88l-.36.36h-7.2l-.36.36v20.16l-.36.36h-4.32l-.36-.36V39.6l-.36-.36h-7.2l-.36-.36v-3.6l.36-.36h20.16l.36.36v3.6zm23.06 17.28c2.9 0 4.7-1.2 5.4-3.6l.36-.36h4.32l.36.36c-.36 2.5-1.47 4.44-3.32 5.83-1.84 1.3-4.22 2-7.12 2-3.87 0-6.88-1.2-9.04-3.56-2.14-2.38-3.2-5.5-3.2-9.4 0-3.9 1.06-7 3.2-9.4 2.16-2.37 5.17-3.56 9.04-3.56 2.88 0 5.24.67 7.1 2.02 1.86 1.34 2.98 3.2 3.34 5.54l-.36.38h-4.32l-.36-.36c-.72-2.17-2.52-3.25-5.4-3.25-2.43 0-4.24.77-5.44 2.33-1.18 1.56-1.76 3.66-1.76 6.3 0 2.64.58 4.74 1.76 6.3 1.2 1.56 3 2.34 5.44 2.34zm31.68 3.6l-.37.36h-16.2l-.3-.36V35.28l.4-.36h4.3l.38.36v20.16l.36.36h11.16l.37.36v3.6zm22.32-24.48V50.4c0 3.24-.87 5.74-2.62 7.5-1.73 1.72-4.22 2.58-7.45 2.58-3.25 0-5.74-.86-7.5-2.6-1.72-1.74-2.6-4.24-2.6-7.48V35.28l.38-.36h4.4l.37.36V50.4c0 3.84 1.67 5.76 5.04 5.76 3.35 0 5.03-1.92 5.03-5.76V35.28l.37-.36h4.3l.36.36zm25.56 18c0 2.35-.7 4.08-2.1 5.18-1.38 1.1-3.1 1.66-5.1 1.66H160.2l-.34-.36V35.28l.35-.36h11.6c2 0 3.7.54 5.1 1.62 1.4 1.06 2.1 2.68 2.1 4.86 0 1.32-.3 2.47-.9 3.46-.6.96-1.5 1.6-2.7 1.94v.36c2.9.72 4.3 2.76 4.3 6.12zm-5.76-11.16c0-.96-.23-1.68-.7-2.16-.42-.48-1.15-.72-2.2-.72h-5.75l-.35.36v5.04l.35.36H171c1.02 0 1.75-.28 2.2-.83.47-.55.7-1.23.7-2.05zM171 55.8c2.4 0 3.62-1.08 3.62-3.24s-1.2-3.24-3.6-3.24h-5.77l-.35.36v5.76l.35.36H171z"/></g></svg>